PathFileType	4	(X/Y/Z)	C:/Users/opensim2020/Desktop/walking_exp_matlab/subject01_walking11_straight_01.trc																																																																																																																																		
DataRate	CameraRate	NumFrames	NumMarkers	Units	OrigDataRate	OrigDataStartFrame	OrigNumFrames																																																																																																																														
100	100	7	44	mm	100	1097	374																																																																																																																														
Frame#	Time	LFHD			RFHD			LBHD			RBHD			C7			T10			CLAV			STRN			RBAK			LSHO			LUPA			LELB			LFRM			LWRA			LWRB			LFIN			RSHO			RUPA			RELB			RFRM			RWRA			RWRB			RFIN			LASI			RASI			LPSI			RPSI			LTHI			LKNE			LTIB			LANK			LHEE			LTOE			RTHI			RKNE			RTIB			RANK			RHEE			RTOE			*39			*40			*41			*42			*43		
		X1	Y1	Z1	X2	Y2	Z2	X3	Y3	Z3	X4	Y4	Z4	X5	Y5	Z5	X6	Y6	Z6	X7	Y7	Z7	X8	Y8	Z8	X9	Y9	Z9	X10	Y10	Z10	X11	Y11	Z11	X12	Y12	Z12	X13	Y13	Z13	X14	Y14	Z14	X15	Y15	Z15	X16	Y16	Z16	X17	Y17	Z17	X18	Y18	Z18	X19	Y19	Z19	X20	Y20	Z20	X21	Y21	Z21	X22	Y22	Z22	X23	Y23	Z23	X24	Y24	Z24	X25	Y25	Z25	X26	Y26	Z26	X27	Y27	Z27	X28	Y28	Z28	X29	Y29	Z29	X30	Y30	Z30	X31	Y31	Z31	X32	Y32	Z32	X33	Y33	Z33	X34	Y34	Z34	X35	Y35	Z35	X36	Y36	Z36	X37	Y37	Z37	X38	Y38	Z38	X39	Y39	Z39	X40	Y40	Z40	X41	Y41	Z41	X42	Y42	Z42	X43	Y43	Z43	X44	Y44	Z44
																																																																																																																																					
188	1.87	-175.79764	1680.96057	1346.70154	-154.14441	1692.6416	1457.81311	-276.23904	1609.13391	1366.11267	-255.60123	1619.81824	1484.27637	-275.35602	1433.09082	1403.12415	-307.84436	1142.09961	1421.32886	-129.89293	1368.76965	1404.3634	-85.92972	1211.94897	1403.65686	-327.01761	1242.0271	1485.13562	-190.35666	1393.15515	1243.96936	-206.90387	1207.42761	1160.50098	-209.43694	1056.82715	1159.42126	-160.67369	953.74402	1134.97131	-74.0642	845.68793	1154.86292	-126.67386	836.42224	1128.45337	-71.74617	771.47681	1120.08057	-195.01721	1400.78296	1554.28455	-258.63782	1206.33655	1659.40588	-259.43988	1082.271	1668.09155	-234.00194	966.03766	1704.75708	-153.98749	848.23346	1694.54407	-199.17317	851.08734	1732.21936	-163.62659	771.50757	1732.25488	-138.4059	932.86932	1317.32349	-135.18411	939.07123	1533.70898	-324.1691	947.44202	1374.37354	-318.57635	950.33716	1520.3988	-146.77473	604.33545	1271.07263	-145.48402	469.6058	1290.34375	-190.50113	283.70258	1286.35986	-204.00204	67.57805	1346.19617	-244.25975	38.60763	1401.92786	-56.30177	33.29969	1330.93872	-123.38218	611.89813	1605.53723	-92.3262	457.23373	1588.63806	-223.24414	338.74823	1591.69226	-349.57132	174.45113	1547.97095	-406.30347	164.58562	1492.44592	-262.78705	61.92396	1555.49255	-176.24054	1721.55994	1436.48621	1973.22473	1023.37616	-3101.89575	2012.5614	1022.12079	-3140.8103	NaN	NaN	NaN	NaN	NaN	NaN
189	1.88	-169.85524	1681.03601	1345.52856	-148.26373	1692.74866	1456.59131	-270.354	1609.26282	1364.81299	-249.78119	1620.03076	1483.04688	-269.80862	1433.33362	1401.95276	-302.60971	1142.41492	1420.3175	-124.46362	1368.81775	1403.29053	-80.68562	1211.93799	1402.54602	-321.74176	1242.40063	1484.1134	-184.8246	1393.31384	1242.80078	-200.60878	1207.62427	1159.27563	-202.53871	1057.08594	1158.13013	-152.62209	954.39734	1133.58447	-64.69517	847.2948	1153.22668	-117.3186	837.38489	1127.21094	-61.77841	773.23279	1118.38843	-189.53354	1400.9314	1553.15259	-253.70767	1206.65442	1658.22864	-254.87289	1082.54565	1666.74048	-229.93034	966.2879	1703.57922	-150.08252	848.28864	1693.83179	-195.45653	851.28064	1731.23608	-160.18217	771.5426	1731.41711	-133.42253	932.8703	1316.10144	-129.95232	939.66016	1532.38074	-319.32614	947.44226	1373.75122	-313.33063	950.68713	1519.70557	-143.32623	603.95697	1270.74463	-143.23863	469.23734	1289.98169	-189.33131	283.57217	1286.34631	-203.33644	67.67294	1346.6875	-244.23344	38.62985	1402.01111	-56.11765	33.14375	1330.97119	-114.98483	613.24091	1604.34009	-81.70172	459.13223	1587.38745	-210.1317	337.61545	1590.1532	-332.70581	170.69261	1545.93555	-388.89694	158.66261	1490.24951	-242.10831	61.60705	1555.39636	-170.18997	1721.71887	1435.26941	1973.05615	1023.88562	-3101.9126	2012.47058	1022.03265	-3140.81836	NaN	NaN	NaN	NaN	NaN	NaN
190	1.89	-163.90961	1681.15161	1344.42151	-142.38988	1692.75952	1455.43726	-264.52454	1609.51953	1363.71765	-243.9949	1620.21753	1481.86816	-264.25711	1433.5531	1400.77612	-297.39993	1142.67505	1419.26233	-119.04089	1368.86243	1402.22681	-75.39371	1211.97131	1401.47107	-316.43311	1242.75	1483.09094	-179.25642	1393.46033	1241.73523	-194.47626	1207.74524	1158.09558	-195.45613	1057.047	1156.73279	-144.67468	954.93365	1132.36035	-55.37484	848.9646	1151.73914	-108.05589	838.36536	1126.0874	-51.78872	774.9303	1116.9939	-183.95726	1401.08057	1552.05115	-248.67549	1206.92334	1657.18372	-250.31108	1082.75305	1665.47498	-225.82597	966.4884	1702.47778	-146.0584	848.32635	1693.16516	-191.54068	851.42566	1730.25586	-156.59302	771.51398	1730.57068	-128.62344	932.75232	1314.96484	-124.78395	940.20496	1531.28223	-314.4483	947.40344	1373.0719	-308.15198	950.86542	1519.05408	-140.25777	603.56042	1270.4032	-141.11021	468.84515	1289.68347	-188.01198	283.40237	1286.33435	-203.05531	67.64689	1346.92725	-244.12187	38.66456	1402.14526	-56.00307	33.11237	1331.0116	-106.15601	614.99243	1603.53137	-71.36819	460.79358	1586.03381	-196.97244	336.32327	1588.67322	-315.29428	166.44646	1544.24426	-371.1391	152.39442	1488.35413	-220.74586	61.30306	1555.38306	-164.26334	1721.84033	1434.13147	1973.08997	1023.91516	-3102.01514	2012.47998	1021.93591	-3140.65771	NaN	NaN	NaN	NaN	NaN	NaN
191	1.9	-157.85925	1681.20557	1343.41431	-136.50896	1692.81494	1454.43384	-258.81006	1609.76343	1362.57983	-238.17934	1620.39453	1480.82739	-258.68341	1433.7644	1399.78247	-292.1275	1142.87671	1418.15564	-113.58633	1368.90613	1401.19788	-70.08997	1211.93811	1400.39478	-311.19415	1243.03149	1482.03064	-173.73447	1393.6604	1240.71399	-188.47623	1207.95667	1156.95117	-188.63799	1057.30786	1155.4552	-136.77794	955.50116	1131.11145	-46.16655	850.56396	1150.49426	-98.79639	839.26355	1125.15955	-42.03783	776.33411	1115.84937	-178.56436	1401.15833	1550.98938	-243.59584	1207.15405	1656.22925	-245.70007	1082.98413	1664.3728	-221.56078	966.6405	1701.49548	-142.00333	848.3623	1692.52234	-187.69566	851.4917	1729.44666	-152.88567	771.47229	1729.71252	-123.95207	932.547	1314.18604	-119.65353	940.62244	1530.23596	-309.52417	947.42767	1372.47351	-303.01019	951.1225	1518.47046	-137.41583	603.11249	1269.95081	-139.02069	468.47238	1289.427	-186.3912	283.22565	1285.96533	-202.7952	67.71558	1347.18518	-244.03816	38.72805	1402.29895	-55.82689	33.01265	1331.08167	-97.58531	616.29102	1602.95068	-61.36589	462.34695	1584.70691	-183.8237	334.69925	1587.24463	-297.58234	161.68843	1542.6095	-352.91946	145.62837	1486.67957	-199.39648	60.22296	1554.84509	-158.46114	1721.84668	1433.0271	1973.12817	1023.37317	-3101.91992	2012.56226	1022.05103	-3140.58789	NaN	NaN	NaN	NaN	NaN	NaN
192	1.91	-152.08435	1681.22815	1342.40881	-130.64661	1692.91809	1453.5603	-252.76019	1609.7334	1361.60266	-232.39627	1620.49048	1479.84338	-253.11021	1433.96069	1398.81519	-287.01309	1143.14807	1417.08997	-108.11503	1368.9093	1400.27002	-64.78202	1211.91785	1399.41931	-305.80078	1243.21838	1480.94031	-168.20432	1393.81006	1239.72815	-182.52765	1208.12805	1155.87683	-181.58722	1057.4353	1154.09167	-128.78258	956.15607	1129.98438	-36.93034	852.25323	1149.3324	-89.5547	840.08722	1124.50696	-32.13049	778.26978	1114.58655	-173.07947	1401.17737	1550.02173	-238.42841	1207.33948	1655.36609	-240.97743	1083.15063	1663.39624	-217.21277	966.78156	1700.55762	-137.81958	848.37604	1691.84387	-183.67268	851.43109	1728.44299	-148.91956	771.49945	1728.96863	-118.70215	932.59277	1313.32581	-114.54324	940.93976	1529.32629	-304.58682	947.54254	1371.81177	-298.19177	951.58527	1517.91333	-134.73172	602.71619	1269.5802	-136.87921	468.0928	1289.20435	-184.99117	283.12454	1285.98096	-202.59264	67.75359	1347.34277	-243.97139	38.76957	1402.47131	-55.75377	32.98565	1331.125	-88.43629	618.20154	1602.6217	-51.72338	463.88202	1583.41833	-170.91345	333.29742	1586.0094	-279.24213	156.71429	1541.29529	-334.11496	138.67535	1485.15076	-177.69041	58.97036	1554.15271	-152.57683	1721.88574	1432.07874	1973.14819	1023.88672	-3101.86011	2012.54321	1022.08148	-3140.63062	NaN	NaN	NaN	NaN	NaN	NaN
193	1.92	-146.17693	1681.2627	1341.58655	-124.81912	1692.94666	1452.75171	-246.93506	1609.81958	1360.67102	-226.65202	1620.50671	1478.89148	-247.53012	1434.08057	1397.87341	-281.71362	1143.23132	1415.95825	-102.64583	1368.86658	1399.35815	-59.48992	1211.84534	1398.47522	-300.49997	1243.35278	1479.82629	-162.70576	1393.90027	1238.823	-176.57109	1208.32861	1154.87073	-174.5995	1057.64124	1152.87891	-120.76767	956.81421	1128.98279	-27.57807	854.16559	1148.20837	-80.25751	841.05945	1123.81396	-22.08975	780.0246	1113.9751	-167.60826	1401.16309	1549.13354	-233.20381	1207.45386	1654.51086	-236.21523	1083.29468	1662.51062	-212.79022	966.8302	1699.66235	-133.55482	848.34131	1691.13831	-179.38858	851.50659	1727.65381	-144.7784	771.41852	1728.19409	-114.20462	932.13983	1312.50891	-109.36494	941.2265	1528.52576	-299.63864	947.70099	1371.20422	-292.69992	951.47968	1517.26758	-132.09146	602.25256	1269.10718	-134.82318	467.69235	1289.00195	-183.69257	282.96982	1286.28223	-202.43372	67.65014	1347.48633	-243.78661	38.80729	1402.70667	-55.68408	32.95502	1331.18127	-80.79017	619.0802	1601.78589	-42.42076	465.29099	1581.95435	-158.09793	331.48328	1584.64709	-260.91989	151.29289	1539.80566	-315.05728	131.58548	1483.73669	-155.64922	57.76601	1553.44666	-146.73418	1721.93347	1431.25952	1972.96448	1023.96558	-3101.99902	2012.45679	1021.98926	-3140.69458	NaN	NaN	NaN	NaN	NaN	NaN
194	1.93	-140.2301	1681.24121	1340.80188	-119.04906	1692.83472	1451.91455	-241.26434	1609.94104	1359.75879	-220.89911	1620.5365	1478.11133	-241.94977	1434.19299	1397.03564	-276.49503	1143.42175	1414.94519	-97.13595	1368.81555	1398.57007	-54.0964	1211.76794	1397.61011	-295.10965	1243.41809	1478.6969	-157.17552	1394.02173	1238.0083	-170.83594	1208.59387	1153.99988	-167.83049	1057.73071	1151.52576	-112.63683	957.45367	1127.97937	-18.30892	856.0376	1147.50391	-70.94083	842.24225	1123.19971	-12.12181	781.85114	1113.19666	-162.11717	1401.14368	1548.30591	-227.95992	1207.50085	1653.70227	-231.4276	1083.35193	1661.66785	-208.17847	966.92169	1698.87805	-129.17978	848.26538	1690.40015	-175.26573	851.36884	1726.83594	-140.51563	771.41345	1727.52014	-109.12299	931.90704	1311.57483	-104.21792	941.41492	1527.78235	-294.62604	947.89215	1370.61011	-287.57285	951.69818	1516.73706	-129.35649	601.82935	1268.77124	-132.61923	467.28928	1288.78149	-182.2636	282.8562	1286.3335	-202.5515	67.81567	1347.52551	-243.63	38.47825	1403.16479	-55.59402	32.95661	1331.23523	-72.99677	620.1767	1601.04443	-33.52549	466.76553	1580.83801	-145.354	329.55771	1583.56641	-242.18661	145.97069	1538.59656	-295.65884	124.00468	1482.39148	-133.07066	56.70753	1552.70496	-140.89653	1721.89807	1430.51563	1973.21899	1023.33466	-3101.89917	2012.44958	1021.966	-3140.75952	NaN	NaN	NaN	NaN	NaN	NaN
